<?xml version="1.0" encoding="utf-8"?>
<!-- Generator: Adobe Illustrator 21.0.0, SVG Export Plug-In . SVG Version: 6.00 Build 0)  -->
<svg version="1.1" id="图层_1" xmlns="http://www.w3.org/2000/svg" xmlns:xlink="http://www.w3.org/1999/xlink" x="0px" y="0px"
	 viewBox="0 0 800 800" style="enable-background:new 0 0 800 800;" xml:space="preserve">
<path d="M94.5,144.9c4.5-11.2,12.9-15,24.8-15c78.7,0.3,157.5,0.1,236.2,0.3c5,0,10.4,0.9,14.8,3.1c7.1,3.4,9.5,10.3,9.5,17.9
	c0.1,21.2,0.2,42.4,0,63.7c-0.2,14-8.1,21.5-22.7,21.5c-57.3,0.1-114.6,0-172,0c-21.8,0-43.7-0.3-65.4,0.2
	c-12.1,0.2-20.8-3.7-25.2-15.3C94.5,195.6,94.5,170.3,94.5,144.9z"/>
<path d="M94.5,435.3c4.5-11.6,13.2-15.3,25.3-15.3c78.3,0.2,156.6,0.2,235,0.2c18.2,0,25.1,6.9,25.1,25.2c0,19,0,38.1,0,57.1
	c0,16.9-7.3,24-24.4,24c-78.7,0-157.5-0.1-236.2,0.2c-11.8,0-20.3-3.9-24.7-15.1C94.5,486,94.5,460.7,94.5,435.3z"/>
<path d="M398.9,671.6c-39.2,0-78.5,0-117.8,0c-17.6,0-24.6-6.9-24.6-24.3c0-19.8-0.1-39.7,0-59.5c0.1-14.6,7.8-22.4,22.5-22.4
	c80.1-0.1,160.2-0.1,240.4,0c14.7,0,22.4,7.8,22.5,22.4c0.1,20.5,0.1,40.8,0,61.3c0,15-7.6,22.6-22.8,22.6
	C479.1,671.6,439,671.6,398.9,671.6z"/>
<path d="M561.6,130c39.2,0,78.5,0,117.8,0c17.6,0,24.5,6.9,24.5,24.4c0,19.8,0,39.7,0,59.5c0,14.7-7.7,22.4-22.4,22.4
	c-80.1,0.1-160.2,0.1-240.4,0c-14.7,0-22.4-7.7-22.5-22.4c-0.1-20.5-0.1-40.8,0-61.3c0.1-15,7.6-22.6,22.8-22.6
	C481.5,129.9,521.6,130,561.6,130z"/>
<path d="M399.5,275.1c39.2,0,78.5,0,117.8,0c17.6,0,24.6,7,24.7,24.4c0,19.6,0,39.2,0,58.9c0,15.3-7.6,23-23.1,23.1
	c-79.8,0-159.5,0-239.2,0c-15.4,0-23.1-7.6-23.1-23c0-20.2-0.1-40.5,0-60.7c0-15,7.6-22.6,22.7-22.7
	C319.4,275,359.4,275.1,399.5,275.1z"/>
<path d="M561.4,526.5c-39.5,0-78.9,0-118.4,0c-17.4,0-24.4-7.2-24.4-24.7c0-19.5,0-38.9,0-58.3c0-15.8,7.6-23.4,23.4-23.4
	c79.5,0,159.1,0,238.6,0c16,0,23.4,7.4,23.4,23.2c0,20.2,0,40.5,0,60.7c0,14.7-7.6,22.4-22.4,22.4
	C641.6,526.6,601.5,526.5,561.4,526.5z"/>
<path d="M157,381.4c-12.7,0-25.3,0.1-38,0c-15.4-0.1-23.1-7.6-23.1-23c-0.1-20.2-0.1-40.5,0-60.6c0-15.1,7.6-22.7,22.7-22.7
	c25.6-0.1,51.1-0.1,76.7,0c14.9,0.1,22.4,7.5,22.4,22.3c0.1,20.6,0.2,41.2,0,61.8c-0.1,14.7-7.6,22.1-22.5,22.2
	C182.4,381.5,169.7,381.4,157,381.4z"/>
<path d="M641.5,381.4c-12.5,0-25,0-37.5,0c-15.6-0.1-23.1-7.3-23.1-22.8c-0.1-20.4-0.1-40.8,0-61.2c0.1-14.9,7.5-22.2,22.4-22.3
	c25.6-0.1,51.1-0.1,76.7,0c15.1,0.1,22.7,7.6,22.7,22.7c0.1,20.2,0.1,40.5,0,60.6c0,15.3-7.7,22.9-23.1,23
	C666.8,381.5,654.2,381.4,641.5,381.4z"/>
<path d="M156.4,671.6c-12.7,0-25.3,0.1-38,0c-15.1-0.2-22.4-7.7-22.5-22.9c-0.1-20.2-0.1-40.5,0-60.6c0-15,7.7-22.7,22.7-22.7
	c25.6-0.1,51.1-0.1,76.7,0c14.8,0.1,22.3,7.6,22.4,22.4c0.1,20.6,0.2,41.2,0,61.8c-0.1,14.6-7.5,21.8-22,22.1c-0.4,0-0.8,0-1.2,0
	C181.7,671.6,169.1,671.6,156.4,671.6z"/>
<path d="M641.6,671.6c-12.9,0-25.7,0.1-38.6,0c-14.7-0.2-22.1-7.4-22.1-21.9c-0.2-20.8-0.2-41.6,0-62.4c0.1-14.4,7.7-21.8,22.2-21.9
	c25.7-0.1,51.5-0.1,77.2,0c14.5,0.1,22.2,7.9,22.3,22.6c0.1,20.4,0.1,40.8,0,61.2c-0.1,14.7-7.6,22.3-22.4,22.4
	C667.4,671.7,654.5,671.6,641.6,671.6z"/>
</svg>
